<?xml version="1.0" encoding="UTF-8"?>
<svg id="Capa_3" data-name="Capa 3" xmlns="http://www.w3.org/2000/svg" version="1.1" viewBox="0 0 933.39 925.65">
  <defs>
    <style>
      .cls-1 {
        fill: #d65d5a;
      }

      .cls-1, .cls-2, .cls-3 {
        stroke-width: 0px;
      }

      .cls-2 {
        fill: #2a1f5d;
      }

      .cls-3 {
        fill: #e17f72;
      }
    </style>
  </defs>
  <path class="cls-2" d="M774.58,487.29c-93.48,87.2-307.98,267.92-326.93,267.92-22.11,0-262.87-227.36-322.29-284.35-33.51-34.87-56.45-79.93-63.67-130.1-1.59,11.09-2.42,22.42-2.42,33.95,0,63.7,25.18,121.47,66.09,164.03,59.42,57,300.18,284.35,322.29,284.35,18.94,0,233.44-180.71,326.93-267.91,49.05-45.74,83.56-108.15,83.56-180.47,0-11.7-.85-23.19-2.5-34.43-8.75,58.14-39.75,108.49-81.06,147.01Z"/>
  <path class="cls-1" d="M858.15,306.82c0-130.79-106.03-236.82-236.82-236.82-62.99,0-122.64,23.69-162.63,71.05-40.51-50.53-99.62-71.05-162.59-71.05-130.81,0-236.82,106.04-236.82,236.82,0,63.7,25.18,121.47,66.09,164.04,59.42,56.99,300.18,284.35,322.29,284.35,18.94,0,233.44-180.72,326.93-267.92,49.05-45.74,83.56-108.15,83.56-180.47Z"/>
  <path class="cls-2" d="M70.33,414.02h221.54c3.07,0,5.83-1.97,6.81-4.9l46.49-137.65,70.18,315.85c.69,3.12,3.38,5.42,6.57,5.63,3.19.2,6.15-1.74,7.23-4.74l63.54-176.29h349.67c3.97,0,7.18-3.22,7.18-7.2s-3.21-7.19-7.18-7.19h-354.71c-3.05,0-5.75,1.89-6.78,4.76l-56.84,157.69-70.41-316.79c-.69-3.16-3.4-5.45-6.63-5.63-3.24-.18-6.16,1.82-7.2,4.88l-53.09,157.19H70.33c-3.99,0-7.2,3.22-7.2,7.19s3.21,7.2,7.2,7.2Z"/>
  <path class="cls-3" d="M108.2,288.67c7.9-59.62,26.85-172.08,170.52-169.72,39.53.66,69.8,56.64-18.17,81.31-64.73,18.15-104.19,75.78-112.08,101.04-7.2,23.06-44.04,15.93-40.26-12.63Z"/>
</svg>